<svg width="34pt" height="34pt" version="1.1" viewBox="0 0 11.994 11.994" xmlns="http://www.w3.org/2000/svg">
<g transform="translate(-2.4694 -13.758)">
<rect x="2.4694" y="13.758" width="11.994" height="11.994" ry="5.9972" fill="#2d3e50" style="paint-order:stroke fill markers"/>
<g transform="matrix(.55921 0 0 .56409 7.297 -10.138)" fill="none" stroke="#47c8b9" stroke-linecap="round" stroke-linejoin="round">
<g transform="matrix(.39319 0 0 .38934 -2.6266 48.322)" stroke-width="2.4081">
<ellipse cx="12" cy="5" rx="9" ry="3"/>
<path d="m21 12c0 1.66-4 3-9 3s-9-1.34-9-3"/>
<path d="m3 5v14c0 1.66 4 3 9 3s9-1.34 9-3v-14"/>
</g>
<path d="m-5.4786 50.437a7.9991 7.9175 0 0 1 7.5702-5.3599 7.9991 7.9175 0 0 1 7.5702 5.36" stroke-dashoffset="3.2" stroke-width=".94218" style="paint-order:markers stroke fill"/>
<path d="m9.6618 55.552a7.9991 7.9175 0 0 1-7.5702 5.3597 7.9991 7.9175 0 0 1-7.57-5.3592" stroke-dashoffset="3.2" stroke-width=".94218" style="paint-order:markers stroke fill"/>
<path d="m7.5169 56.251 2.1449-0.69861 0.71838 2.0859" stroke-dashoffset="3.2" stroke-width=".94218" style="paint-order:stroke fill markers"/>
<path d="m-3.3336 49.738-2.1449 0.69861-0.71838-2.0859" stroke-dashoffset="3.2" stroke-width=".94218" style="paint-order:stroke fill markers"/>
</g>
</g>
</svg>
