<svg width="141.71" height="48" version="1.1" viewBox="0 0 141.71 48" xmlns="http://www.w3.org/2000/svg">
<rect width="48" height="48" ry="24" fill="#2d3e50" style="paint-order:stroke fill markers"/>
<ellipse cx="24" cy="18.171" rx="7.4999" ry="2.4971" fill="none" stroke="#47c8b9" stroke-linecap="round" stroke-linejoin="round" stroke-width="2"/>
<path d="m31.5 23.998c0 1.3817-3.3333 2.4971-7.4999 2.4971s-7.4999-1.1154-7.4999-2.4971" fill="none" stroke="#47c8b9" stroke-linecap="round" stroke-linejoin="round" stroke-width="2"/>
<path d="m16.5 18.171v11.653c0 1.3817 3.3333 2.4971 7.4999 2.4971s7.4999-1.1154 7.4999-2.4971v-11.653" fill="none" stroke="#47c8b9" stroke-linecap="round" stroke-linejoin="round" stroke-width="2"/>
<path d="m7.9557 18.531a16.953 16.927 0 0 1 16.044-11.459 16.953 16.927 0 0 1 16.044 11.459" fill="none" stroke="#47c8b9" stroke-dashoffset="3.2" stroke-linecap="round" stroke-linejoin="round" stroke-width="2" style="paint-order:markers stroke fill"/>
<path d="m40.044 29.467a16.953 16.927 0 0 1-16.044 11.459 16.953 16.927 0 0 1-16.044-11.457" fill="none" stroke="#47c8b9" stroke-dashoffset="3.2" stroke-linecap="round" stroke-linejoin="round" stroke-width="2" style="paint-order:markers stroke fill"/>
<path d="m35.498 30.961 4.5459-1.4936 1.5225 4.4594" fill="none" stroke="#47c8b9" stroke-dashoffset="3.2" stroke-linecap="round" stroke-linejoin="round" stroke-width="2" style="paint-order:stroke fill markers"/>
<path d="m12.502 17.037-4.5459 1.4936-1.5225-4.4594" fill="none" stroke="#47c8b9" stroke-dashoffset="3.2" stroke-linecap="round" stroke-linejoin="round" stroke-width="2" style="paint-order:stroke fill markers"/>
<g fill="#2d3e50" style="font-variant-caps:normal;font-variant-east-asian:normal;font-variant-ligatures:normal;font-variant-numeric:normal" aria-label="StorageReloaded">
<path d="m61.712 18.665q-1.5619 0-2.9615-0.40568-1.3793-0.42596-2.2515-1.1359-0.46653-0.34483-0.46653-0.97363 0-0.42596 0.24341-0.73022 0.26369-0.32454 0.60852-0.32454 0.36511 0 0.83164 0.28398 0.87221 0.6288 1.8256 0.91278t2.1095 0.28398q1.4807 0 2.2718-0.5071 0.79108-0.52738 0.79108-1.5213 0-0.77079-0.75051-1.1765-0.73022-0.42596-2.4544-0.81136-1.785-0.3854-2.9006-0.8925t-1.6836-1.2982q-0.56795-0.79108-0.56795-2.0081 0-1.2576 0.70994-2.2515t1.9675-1.5416q1.2779-0.56795 2.86-0.56795 2.9006 0 4.7262 1.5416 0.26369 0.22312 0.36511 0.44625 0.1217 0.20284 0.1217 0.52738 0 0.42596-0.26369 0.75051-0.24341 0.30426-0.58824 0.30426-0.20284 0-0.3854-0.060852-0.16227-0.060852-0.44625-0.22312-0.83164-0.60852-1.6227-0.8925-0.77079-0.30426-1.9067-0.30426-1.3793 0-2.1907 0.56795-0.79108 0.54767-0.79108 1.5416 0 0.83164 0.70994 1.2779t2.4138 0.83164q1.8053 0.40568 2.9209 0.91278 1.1359 0.48682 1.7241 1.2576 0.60852 0.77079 0.60852 1.927 0 1.2576-0.70994 2.2312-0.68966 0.95335-1.9675 1.501-1.2576 0.52738-2.9006 0.52738z" style="font-variant-caps:normal;font-variant-east-asian:normal;font-variant-ligatures:normal;font-variant-numeric:normal"/>
<path d="m74.491 16.718q1.0142 0.06085 1.0142 0.91278 0 0.48682-0.40568 0.75051-0.3854 0.24341-1.1156 0.20284l-0.54767-0.04057q-3.4077-0.24341-3.4077-3.6511v-4.4219h-1.0142q-0.54767 0-0.85193-0.24341-0.28398-0.24341-0.28398-0.70994t0.28398-0.70994q0.30426-0.24341 0.85193-0.24341h1.0142v-1.8661q0-0.54767 0.34483-0.87221t0.93306-0.32454q0.56795 0 0.91278 0.32454t0.34483 0.87221v1.8661h1.7241q0.54767 0 0.83164 0.24341 0.30426 0.24341 0.30426 0.70994t-0.30426 0.70994q-0.28398 0.24341-0.83164 0.24341h-1.7241v4.6045q0 1.501 1.3793 1.6024z" style="font-variant-caps:normal;font-variant-east-asian:normal;font-variant-ligatures:normal;font-variant-numeric:normal"/>
<path d="m81.347 18.645q-1.5213 0-2.6775-0.6288-1.1359-0.6288-1.7647-1.8053t-0.6288-2.7383 0.6288-2.7181q0.6288-1.1765 1.7647-1.8053 1.1562-0.6288 2.6775-0.6288t2.6572 0.6288q1.1562 0.6288 1.7647 1.8053 0.6288 1.1562 0.6288 2.7181t-0.6288 2.7383q-0.60852 1.1765-1.7647 1.8053-1.1359 0.6288-2.6572 0.6288zm-0.02028-1.9675q1.2373 0 1.8864-0.81136t0.64909-2.3935q0-1.5619-0.64909-2.3732-0.64909-0.83164-1.8661-0.83164t-1.8864 0.83164q-0.64909 0.81136-0.64909 2.3732 0 1.5822 0.64909 2.3935t1.8661 0.81136z" style="font-variant-caps:normal;font-variant-east-asian:normal;font-variant-ligatures:normal;font-variant-numeric:normal"/>
<path d="m94.024 8.361q0.52738-0.040568 0.83164 0.22312t0.30426 0.79108q0 0.54767-0.26369 0.81136-0.26369 0.26369-0.95335 0.34483l-0.60852 0.06085q-1.1968 0.1217-1.7647 0.81136-0.54767 0.68966-0.54767 1.7241v4.2596q0 0.58824-0.36511 0.91278-0.36511 0.30426-0.91278 0.30426t-0.91278-0.30426q-0.34483-0.32454-0.34483-0.91278v-7.8499q0-0.56795 0.34483-0.87221 0.36511-0.30426 0.8925-0.30426t0.85193 0.30426q0.32454 0.28398 0.32454 0.83164v0.81136q0.3854-0.8925 1.1359-1.3793 0.77079-0.48682 1.7039-0.54767z" style="font-variant-caps:normal;font-variant-east-asian:normal;font-variant-ligatures:normal;font-variant-numeric:normal"/>
<path d="m100.52 8.3204q2.069 0 3.0629 1.0345 1.0142 1.0142 1.0142 3.1035v4.9493q0 0.54767-0.32454 0.87221-0.32455 0.30426-0.8925 0.30426-0.52738 0-0.87221-0.32454-0.32455-0.32454-0.32455-0.85193v-0.44625q-0.34482 0.79108-1.0953 1.2373-0.73023 0.44625-1.7039 0.44625-0.99392 0-1.8053-0.40568t-1.2779-1.1156-0.46653-1.5822q0-1.0953 0.54767-1.7241 0.56795-0.6288 1.8256-0.91278t3.4686-0.28398h0.5071v-0.46653q0-0.99392-0.42596-1.4402-0.42596-0.46653-1.3793-0.46653-0.58824 0-1.1968 0.18256-0.60852 0.16227-1.4402 0.48682-0.52738 0.26369-0.77079 0.26369-0.36511 0-0.60852-0.26369-0.22312-0.26369-0.22312-0.68966 0-0.34483 0.16227-0.58824 0.18256-0.26369 0.58824-0.48682 0.70994-0.3854 1.6836-0.60852 0.99392-0.22312 1.9473-0.22312zm-0.62881 8.499q1.0142 0 1.643-0.66937 0.64908-0.68966 0.64908-1.7647v-0.42596h-0.36511q-1.359 0-2.1095 0.1217-0.75051 0.1217-1.0751 0.42596t-0.32454 0.83164q0 0.64909 0.44625 1.0751 0.46653 0.40568 1.1359 0.40568z" style="font-variant-caps:normal;font-variant-east-asian:normal;font-variant-ligatures:normal;font-variant-numeric:normal"/>
<path d="m115.57 8.361q0.56795 0 0.91278 0.32454t0.34483 0.87221v8.0122q0 2.3327-1.2982 3.5294-1.2982 1.1968-3.8337 1.1968-2.211 0-3.6917-0.83164-0.75051-0.44625-0.75051-1.0751 0-0.44625 0.20284-0.70994 0.22313-0.26369 0.56795-0.26369 0.18256 0 0.44625 0.08114 0.26369 0.10142 0.54767 0.22312 0.73022 0.30426 1.2982 0.46653 0.58823 0.16227 1.3387 0.16227 2.6572 0 2.6572-2.5964v-1.2982q-0.44624 0.83164-1.2982 1.2982-0.85193 0.44625-1.9473 0.44625-1.2982 0-2.3124-0.60852-0.99392-0.6288-1.5619-1.7444t-0.56795-2.5761 0.54767-2.5761q0.56795-1.1359 1.5822-1.7444 1.0142-0.6288 2.3124-0.6288 1.0953 0 1.9473 0.46653 0.85193 0.44625 1.2982 1.2779v-0.52739q0-0.52738 0.34483-0.85193t0.91278-0.32454zm-3.8337 7.8702q1.217 0 1.8864-0.79108 0.68965-0.79108 0.68965-2.1704 0-1.3996-0.68965-2.1907-0.66937-0.79108-1.8864-0.79108-1.1968 0-1.8864 0.79108-0.68965 0.79108-0.68965 2.1907 0 1.3793 0.68965 2.1704 0.68966 0.79108 1.8864 0.79108z" style="font-variant-caps:normal;font-variant-east-asian:normal;font-variant-ligatures:normal;font-variant-numeric:normal"/>
<path d="m127.29 15.765q0.34482 0 0.54766 0.26369 0.22313 0.26369 0.22313 0.70994 0 0.6288-0.75051 1.0548-0.68966 0.3854-1.5619 0.6288-0.87221 0.22312-1.6633 0.22312-2.3935 0-3.7931-1.3793-1.3996-1.3793-1.3996-3.7728 0-1.5213 0.60852-2.6978 0.60852-1.1765 1.7039-1.8256 1.1156-0.64909 2.5152-0.64909 1.3388 0 2.3327 0.58824 0.99392 0.58824 1.5416 1.6633 0.54766 1.0751 0.54766 2.5355 0 0.87221-0.77079 0.87221h-5.9838q0.12171 1.3996 0.79108 2.069 0.66937 0.64909 1.9473 0.64909 0.64909 0 1.1359-0.16227 0.5071-0.16227 1.1359-0.44625 0.60852-0.32454 0.8925-0.32454zm-3.5091-5.6592q-1.0345 0-1.6633 0.64909-0.60852 0.64909-0.73023 1.8661h4.5842q-0.0406-1.2373-0.60852-1.8661-0.56796-0.64909-1.5822-0.64909z" style="font-variant-caps:normal;font-variant-east-asian:normal;font-variant-ligatures:normal;font-variant-numeric:normal"/>
<path d="m68.203 42.195q0.24341 0.36511 0.24341 0.70994 0 0.46653-0.3854 0.77079-0.36511 0.30426-0.87221 0.30426-0.32454 0-0.6288-0.14199-0.28398-0.16227-0.48682-0.46653l-2.6978-4.0974q-0.40568-0.64909-0.87221-0.91278-0.44625-0.26369-1.1765-0.26369h-1.9878v4.5436q0 0.60852-0.34483 0.97363-0.34483 0.34483-0.93306 0.34483t-0.95335-0.34483q-0.34483-0.36511-0.34483-0.97363v-11.866q0-0.58824 0.32454-0.91278 0.34483-0.32454 0.93306-0.32454h5.071q2.4341 0 3.6917 1.0953 1.2779 1.0751 1.2779 3.1237 0 1.6633-0.95335 2.7383-0.93306 1.0548-2.6572 1.359 0.58824 0.14199 1.0345 0.5071t0.87221 1.0142zm-5.4767-6.1055q1.4807 0 2.1704-0.54767 0.68966-0.56795 0.68966-1.7241 0-1.1765-0.68966-1.7039-0.68966-0.54767-2.1704-0.54767h-3.4077v4.5233z" style="font-variant-caps:normal;font-variant-east-asian:normal;font-variant-ligatures:normal;font-variant-numeric:normal"/>
<path d="m78.487 41.12q0.34483 0 0.54767 0.26369 0.22312 0.26369 0.22312 0.70994 0 0.6288-0.75051 1.0548-0.68966 0.3854-1.5619 0.6288-0.87221 0.22312-1.6633 0.22312-2.3935 0-3.7931-1.3793t-1.3996-3.7728q0-1.5213 0.60852-2.6978t1.7039-1.8256q1.1156-0.64909 2.5152-0.64909 1.3387 0 2.3327 0.58824t1.5416 1.6633 0.54767 2.5355q0 0.87221-0.77079 0.87221h-5.9838q0.1217 1.3996 0.79108 2.069 0.66937 0.64909 1.9473 0.64909 0.64909 0 1.1359-0.16227 0.5071-0.16227 1.1359-0.44625 0.60852-0.32454 0.8925-0.32454zm-3.5091-5.6592q-1.0345 0-1.6633 0.64909-0.60852 0.64909-0.73022 1.8661h4.5842q-0.04057-1.2373-0.60852-1.8661-0.56795-0.64909-1.5822-0.64909z" style="font-variant-caps:normal;font-variant-east-asian:normal;font-variant-ligatures:normal;font-variant-numeric:normal"/>
<path d="m82.665 43.959q-0.54767 0-0.91278-0.30426-0.34483-0.32454-0.34483-0.91278v-12.11q0-0.58824 0.34483-0.8925 0.36511-0.30426 0.91278-0.30426t0.91278 0.30426 0.36511 0.8925v12.11q0 0.58824-0.36511 0.91278-0.36511 0.30426-0.91278 0.30426z" style="font-variant-caps:normal;font-variant-east-asian:normal;font-variant-ligatures:normal;font-variant-numeric:normal"/>
<path d="m91.083 44q-1.5213 0-2.6775-0.6288-1.1359-0.6288-1.7647-1.8053t-0.6288-2.7383q0-1.5619 0.6288-2.7181 0.6288-1.1765 1.7647-1.8053 1.1562-0.6288 2.6775-0.6288t2.6572 0.6288q1.1562 0.6288 1.7647 1.8053 0.6288 1.1562 0.6288 2.7181 0 1.5619-0.6288 2.7383-0.60852 1.1765-1.7647 1.8053-1.1359 0.6288-2.6572 0.6288zm-0.02028-1.9675q1.2373 0 1.8864-0.81136t0.64909-2.3935q0-1.5619-0.64909-2.3732-0.64909-0.83164-1.8661-0.83164t-1.8864 0.83164q-0.64909 0.81136-0.64909 2.3732 0 1.5822 0.64909 2.3935t1.8661 0.81136z" style="font-variant-caps:normal;font-variant-east-asian:normal;font-variant-ligatures:normal;font-variant-numeric:normal"/>
<path d="m102.52 33.675q2.069 0 3.0629 1.0345 1.0142 1.0142 1.0142 3.1035v4.9493q0 0.54767-0.32454 0.87221-0.32455 0.30426-0.8925 0.30426-0.52738 0-0.87221-0.32454-0.32455-0.32454-0.32455-0.85193v-0.44625q-0.34482 0.79108-1.0953 1.2373-0.73023 0.44625-1.7039 0.44625-0.99391 0-1.8053-0.40568-0.81136-0.40568-1.2779-1.1156t-0.46653-1.5822q0-1.0953 0.54767-1.7241 0.56795-0.6288 1.8256-0.91278 1.2576-0.28398 3.4686-0.28398h0.5071v-0.46653q0-0.99392-0.42596-1.4402-0.42596-0.46653-1.3793-0.46653-0.58824 0-1.1968 0.18256-0.60852 0.16227-1.4402 0.48682-0.52738 0.26369-0.77079 0.26369-0.36511 0-0.60852-0.26369-0.22312-0.26369-0.22312-0.68966 0-0.34483 0.16227-0.58824 0.18256-0.26369 0.58824-0.48682 0.70994-0.3854 1.6836-0.60852 0.99392-0.22312 1.9473-0.22312zm-0.62881 8.499q1.0142 0 1.643-0.66937 0.64908-0.68966 0.64908-1.7647v-0.42596h-0.36511q-1.359 0-2.1095 0.1217-0.75051 0.1217-1.0751 0.42596-0.32454 0.30426-0.32454 0.83164 0 0.64909 0.44625 1.0751 0.46653 0.40568 1.1359 0.40568z" style="font-variant-caps:normal;font-variant-east-asian:normal;font-variant-ligatures:normal;font-variant-numeric:normal"/>
<path d="m117.45 29.436q0.56796 0 0.93307 0.32454t0.36511 0.85193v12.13q0 0.54767-0.34483 0.87221t-0.91278 0.32454-0.91278-0.32454-0.34483-0.87221v-0.5071q-0.44624 0.83164-1.2982 1.2982-0.83165 0.46653-1.9067 0.46653-1.2779 0-2.2921-0.64909-0.99392-0.64909-1.5619-1.8256-0.54767-1.1968-0.54767-2.7383 0-1.5416 0.54767-2.6978 0.56795-1.1562 1.5619-1.785t2.2921-0.6288q1.075 0 1.9067 0.44625 0.83164 0.44625 1.2779 1.2576v-4.8073q0-0.5071 0.32454-0.81136 0.34483-0.32454 0.91278-0.32454zm-3.7525 12.596q1.217 0 1.8661-0.83164 0.66937-0.83164 0.66937-2.3732 0-1.5416-0.66937-2.3529-0.64909-0.83164-1.8458-0.83164-1.217 0-1.8864 0.81136-0.66938 0.81136-0.66938 2.3327 0 1.5416 0.66938 2.3935 0.66937 0.85193 1.8661 0.85193z" style="font-variant-caps:normal;font-variant-east-asian:normal;font-variant-ligatures:normal;font-variant-numeric:normal"/>
<path d="m129.22 41.12q0.34482 0 0.54766 0.26369 0.22313 0.26369 0.22313 0.70994 0 0.6288-0.75051 1.0548-0.68966 0.3854-1.5619 0.6288-0.87221 0.22312-1.6633 0.22312-2.3935 0-3.7931-1.3793-1.3996-1.3793-1.3996-3.7728 0-1.5213 0.60852-2.6978t1.7039-1.8256q1.1156-0.64909 2.5152-0.64909 1.3388 0 2.3327 0.58824 0.99392 0.58824 1.5416 1.6633 0.54766 1.0751 0.54766 2.5355 0 0.87221-0.77079 0.87221h-5.9838q0.12171 1.3996 0.79108 2.069 0.66937 0.64909 1.9473 0.64909 0.64909 0 1.1359-0.16227 0.5071-0.16227 1.1359-0.44625 0.60852-0.32454 0.8925-0.32454zm-3.5091-5.6592q-1.0345 0-1.6633 0.64909-0.60852 0.64909-0.73023 1.8661h4.5842q-0.0406-1.2373-0.60852-1.8661-0.56796-0.64909-1.5822-0.64909z" style="font-variant-caps:normal;font-variant-east-asian:normal;font-variant-ligatures:normal;font-variant-numeric:normal"/>
<path d="m140.41 29.436q0.56795 0 0.93306 0.32454t0.36511 0.85193v12.13q0 0.54767-0.34482 0.87221-0.34483 0.32454-0.91278 0.32454-0.56796 0-0.91278-0.32454-0.34483-0.32454-0.34483-0.87221v-0.5071q-0.44625 0.83164-1.2982 1.2982-0.83164 0.46653-1.9067 0.46653-1.2779 0-2.2921-0.64909-0.99391-0.64909-1.5619-1.8256-0.54767-1.1968-0.54767-2.7383 0-1.5416 0.54767-2.6978 0.56795-1.1562 1.5619-1.785 0.99392-0.6288 2.2921-0.6288 1.075 0 1.9067 0.44625 0.83165 0.44625 1.2779 1.2576v-4.8073q0-0.5071 0.32455-0.81136 0.34483-0.32454 0.91278-0.32454zm-3.7525 12.596q1.217 0 1.8661-0.83164 0.66937-0.83164 0.66937-2.3732 0-1.5416-0.66937-2.3529-0.64909-0.83164-1.8458-0.83164-1.217 0-1.8864 0.81136t-0.66937 2.3327q0 1.5416 0.66937 2.3935t1.8661 0.85193z" style="font-variant-caps:normal;font-variant-east-asian:normal;font-variant-ligatures:normal;font-variant-numeric:normal"/>
</g>
</svg>
